<svg xmlns="http://www.w3.org/2000/svg" width="80" height="80" viewBox="0 0 80 80">
  <g id="btn-back-to-top" transform="translate(-1570 -2900)">
    <circle id="Ellipse_19" data-name="Ellipse 19" cx="40" cy="40" r="40" transform="translate(1570 2900)" fill="#5911d1"/>
    <g id="Tracé_2185" data-name="Tracé 2185" transform="translate(1586.005 2923.207)" fill="#5911d1">
      <path d="M 24.00761795043945 45.01523971557617 C 21.1702880859375 45.01523971557617 18.41941833496094 44.4602165222168 15.83142757415771 43.3655891418457 C 13.33020782470703 42.30765914916992 11.0832576751709 40.79251861572266 9.152987480163574 38.86224746704102 C 7.222717761993408 36.93197631835938 5.707578182220459 34.68502807617188 4.64964771270752 32.18380737304688 C 3.555017948150635 29.59581756591797 2.999997854232788 26.84494781494141 2.999997854232788 24.00761795043945 C 2.999997854232788 21.1702880859375 3.555017948150635 18.41941833496094 4.64964771270752 15.83142757415771 C 5.707578182220459 13.33020782470703 7.222717761993408 11.0832576751709 9.152987480163574 9.152987480163574 C 11.0832576751709 7.222717761993408 13.33020782470703 5.707578182220459 15.83142757415771 4.64964771270752 C 18.41941833496094 3.555017948150635 21.1702880859375 2.999997854232788 24.00761795043945 2.999997854232788 C 26.84494781494141 2.999997854232788 29.59581756591797 3.555017948150635 32.18380737304688 4.64964771270752 C 34.68502807617188 5.707578182220459 36.93197631835938 7.222717761993408 38.86224746704102 9.152987480163574 C 40.79251861572266 11.0832576751709 42.30765914916992 13.33020782470703 43.3655891418457 15.83142757415771 C 44.4602165222168 18.41941833496094 45.01523971557617 21.1702880859375 45.01523971557617 24.00761795043945 C 45.01523971557617 26.84494781494141 44.4602165222168 29.59581756591797 43.3655891418457 32.18380737304688 C 42.30765914916992 34.68502807617188 40.79251861572266 36.93197631835938 38.86224746704102 38.86224746704102 C 36.93197631835938 40.79251861572266 34.68502807617188 42.30765914916992 32.18380737304688 43.3655891418457 C 29.59581756591797 44.4602165222168 26.84494781494141 45.01523971557617 24.00761795043945 45.01523971557617 Z" stroke="none"/>
      <path d="M 24.00761795043945 6.000003814697266 C 14.07819366455078 6.000003814697266 6.000003814697266 14.07819366455078 6.000003814697266 24.00761795043945 C 6.000003814697266 33.93704223632812 14.07819366455078 42.01523208618164 24.00761795043945 42.01523208618164 C 33.93704223632812 42.01523208618164 42.01523208618164 33.93704223632812 42.01523208618164 24.00761795043945 C 42.01523208618164 14.07819366455078 33.93704223632812 6.000003814697266 24.00761795043945 6.000003814697266 M 24.00761795043945 3.814697265625e-06 C 37.26665496826172 3.814697265625e-06 48.01523208618164 10.74858093261719 48.01523208618164 24.00761795043945 C 48.01523208618164 37.26665496826172 37.26665496826172 48.01523208618164 24.00761795043945 48.01523208618164 C 10.74858093261719 48.01523208618164 3.814697265625e-06 37.26665496826172 3.814697265625e-06 24.00761795043945 C 3.814697265625e-06 10.74858093261719 10.74858093261719 3.814697265625e-06 24.00761795043945 3.814697265625e-06 Z" stroke="none" fill="#fff"/>
    </g>
    <path id="Union_1" data-name="Union 1" d="M7.072,28V13.6H0L11,0,22,13.6H14.929V28Z" transform="translate(1599 2934)" fill="#fff"/>
  </g>
</svg>
